RobotoAvar2-YTOS50.ufo
<glyph name="ampersand" format="2">
  <advance width="1280"/>
  <unicode hex="0026"/>
  <outline>
    <contour>
      <point x="80" y="341" type="qcurve" smooth="yes"/>
      <point x="80" y="540"/>
      <point x="288" y="773"/>
      <point x="430" y="880" type="qcurve" smooth="yes"/>
      <point x="617" y="1020" type="line" smooth="yes"/>
      <point x="694" y="1077"/>
      <point x="750" y="1180"/>
      <point x="750" y="1240" type="qcurve" smooth="yes"/>
      <point x="750" y="1310"/>
      <point x="660" y="1404"/>
      <point x="575" y="1404" type="qcurve" smooth="yes"/>
      <point x="490" y="1404"/>
      <point x="392" y="1300"/>
      <point x="392" y="1230" type="qcurve" smooth="yes"/>
      <point x="392" y="1160"/>
      <point x="472" y="960"/>
      <point x="570" y="840" type="qcurve" smooth="yes"/>
      <point x="1256" y="0" type="line"/>
      <point x="1034" y="0" type="line"/>
      <point x="430" y="740" type="line" smooth="yes"/>
      <point x="324" y="870"/>
      <point x="210" y="1130"/>
      <point x="210" y="1230" type="qcurve" smooth="yes"/>
      <point x="210" y="1370"/>
      <point x="420" y="1556"/>
      <point x="575" y="1556" type="qcurve" smooth="yes"/>
      <point x="730" y="1556"/>
      <point x="922" y="1380"/>
      <point x="922" y="1250" type="qcurve" smooth="yes"/>
      <point x="922" y="1130"/>
      <point x="807" y="968"/>
      <point x="717" y="900" type="qcurve" smooth="yes"/>
      <point x="530" y="760" type="line" smooth="yes"/>
      <point x="397" y="661"/>
      <point x="264" y="490"/>
      <point x="264" y="341" type="qcurve" smooth="yes"/>
      <point x="264" y="210"/>
      <point x="420" y="86"/>
      <point x="550" y="86" type="qcurve" smooth="yes"/>
      <point x="730" y="86"/>
      <point x="990" y="370"/>
      <point x="990" y="674" type="qcurve"/>
      <point x="1162" y="674" type="line"/>
      <point x="1162" y="330"/>
      <point x="810" y="-66"/>
      <point x="550" y="-66" type="qcurve" smooth="yes"/>
      <point x="330" y="-66"/>
      <point x="80" y="145"/>
    </contour>
  </outline>
</glyph>
<glyph name="three" format="2">
  <advance width="1156"/>
  <unicode hex="0033"/>
  <outline>
    <contour>
      <point x="80" y="355" type="qcurve" smooth="yes"/>
      <point x="80" y="365" type="line"/>
      <point x="266" y="365" type="line"/>
      <point x="266" y="355" type="line" smooth="yes"/>
      <point x="266" y="235"/>
      <point x="426" y="78"/>
      <point x="558" y="78" type="qcurve" smooth="yes"/>
      <point x="690" y="78"/>
      <point x="848" y="235"/>
      <point x="848" y="375" type="qcurve" smooth="yes"/>
      <point x="848" y="515"/>
      <point x="670" y="682"/>
      <point x="520" y="682" type="qcurve" smooth="yes"/>
      <point x="405" y="682" type="line"/>
      <point x="405" y="836" type="line"/>
      <point x="510" y="836" type="line" smooth="yes"/>
      <point x="648" y="836"/>
      <point x="798" y="995"/>
      <point x="798" y="1115" type="qcurve" smooth="yes"/>
      <point x="798" y="1235"/>
      <point x="668" y="1378"/>
      <point x="558" y="1378" type="qcurve" smooth="yes"/>
      <point x="442" y="1378"/>
      <point x="306" y="1235"/>
      <point x="306" y="1125" type="qcurve" smooth="yes"/>
      <point x="306" y="1115" type="line"/>
      <point x="120" y="1115" type="line"/>
      <point x="120" y="1125" type="line" smooth="yes"/>
      <point x="120" y="1285"/>
      <point x="362" y="1536"/>
      <point x="558" y="1536" type="qcurve" smooth="yes"/>
      <point x="748" y="1536"/>
      <point x="990" y="1295"/>
      <point x="990" y="1125" type="qcurve" smooth="yes"/>
      <point x="990" y="1025"/>
      <point x="880" y="816"/>
      <point x="764" y="766" type="qcurve"/>
      <point x="764" y="762" type="line"/>
      <point x="890" y="730"/>
      <point x="1042" y="515"/>
      <point x="1042" y="376" type="qcurve" smooth="yes"/>
      <point x="1042" y="175"/>
      <point x="768" y="-80"/>
      <point x="558" y="-80" type="qcurve" smooth="yes"/>
      <point x="336" y="-80"/>
      <point x="80" y="175"/>
    </contour>
  </outline>
</glyph>
<glyph name="nine" format="2">
  <advance width="1156"/>
  <unicode hex="0039"/>
  <outline>
    <contour>
      <point x="72" y="1027" type="qcurve" smooth="yes"/>
      <point x="72" y="1243"/>
      <point x="346" y="1536"/>
      <point x="556" y="1536" type="qcurve" smooth="yes"/>
      <point x="766" y="1536"/>
      <point x="1068" y="1207"/>
      <point x="1068" y="867" type="qcurve" smooth="yes"/>
      <point x="1068" y="837" type="line" smooth="yes"/>
      <point x="1068" y="484"/>
      <point x="657" y="0"/>
      <point x="277" y="0" type="qcurve" smooth="yes"/>
      <point x="256" y="0" type="line"/>
      <point x="256" y="158" type="line"/>
      <point x="276" y="158" type="line" smooth="yes"/>
      <point x="556" y="158"/>
      <point x="880" y="504"/>
      <point x="880" y="827" type="qcurve" smooth="yes"/>
      <point x="880" y="877" type="line" smooth="yes"/>
      <point x="880" y="1137"/>
      <point x="696" y="1378"/>
      <point x="556" y="1378" type="qcurve" smooth="yes"/>
      <point x="416" y="1378"/>
      <point x="262" y="1182"/>
      <point x="262" y="1027" type="qcurve" smooth="yes"/>
      <point x="262" y="872"/>
      <point x="416" y="703"/>
      <point x="556" y="703" type="qcurve" smooth="yes"/>
      <point x="686" y="703"/>
      <point x="886" y="872"/>
      <point x="886" y="1027" type="qcurve"/>
      <point x="956" y="1027" type="line"/>
      <point x="956" y="811"/>
      <point x="716" y="545"/>
      <point x="516" y="545" type="qcurve" smooth="yes"/>
      <point x="317" y="545"/>
      <point x="72" y="811"/>
    </contour>
  </outline>
</glyph>
<glyph name="J" format="2">
  <advance width="1100"/>
  <unicode hex="004A"/>
  <anchor x="550" y="0" name="bottom"/>
  <anchor x="854" y="1456" name="top"/>
  <outline>
    <contour>
      <point x="25" y="330" type="qcurve" smooth="yes"/>
      <point x="25" y="340" type="line"/>
      <point x="217" y="340" type="line"/>
      <point x="217" y="330" type="line" smooth="yes"/>
      <point x="217" y="200"/>
      <point x="360" y="64"/>
      <point x="485" y="64" type="qcurve" smooth="yes"/>
      <point x="610" y="64"/>
      <point x="753" y="215"/>
      <point x="753" y="355" type="qcurve" smooth="yes"/>
      <point x="753" y="1456" type="line"/>
      <point x="945" y="1456" type="line"/>
      <point x="945" y="355" type="line" smooth="yes"/>
      <point x="945" y="145"/>
      <point x="690" y="-100"/>
      <point x="485" y="-100" type="qcurve" smooth="yes"/>
      <point x="280" y="-100"/>
      <point x="25" y="130"/>
    </contour>
  </outline>
</glyph>
<glyph name="O" format="2">
  <advance width="1460"/>
  <unicode hex="004F"/>
  <anchor x="730" y="0" name="bottom"/>
  <anchor x="730" y="728" name="center"/>
  <anchor x="928" y="0" name="ogonek"/>
  <anchor x="730" y="1456" name="top"/>
  <anchor x="923" y="1456" name="topright"/>
  <anchor x="25" y="1074" name="tonos"/>
  <anchor x="309" y="750" name="yu_dash"/>
  <outline>
    <contour>
      <point x="115" y="682" type="qcurve" smooth="yes"/>
      <point x="115" y="774" type="line" smooth="yes"/>
      <point x="115" y="1200"/>
      <point x="460" y="1586"/>
      <point x="730" y="1586" type="qcurve" smooth="yes"/>
      <point x="1000" y="1586"/>
      <point x="1345" y="1200"/>
      <point x="1345" y="774" type="qcurve" smooth="yes"/>
      <point x="1345" y="682" type="line" smooth="yes"/>
      <point x="1345" y="256"/>
      <point x="1000" y="-130"/>
      <point x="730" y="-130" type="qcurve" smooth="yes"/>
      <point x="460" y="-130"/>
      <point x="115" y="256"/>
    </contour>
    <contour>
      <point x="309" y="682" type="line" smooth="yes"/>
      <point x="309" y="326"/>
      <point x="540" y="34"/>
      <point x="730" y="34" type="qcurve" smooth="yes"/>
      <point x="920" y="34"/>
      <point x="1151" y="326"/>
      <point x="1151" y="682" type="qcurve" smooth="yes"/>
      <point x="1151" y="774" type="line" smooth="yes"/>
      <point x="1151" y="1130"/>
      <point x="920" y="1422"/>
      <point x="730" y="1422" type="qcurve" smooth="yes"/>
      <point x="540" y="1422"/>
      <point x="309" y="1130"/>
      <point x="309" y="774" type="qcurve" smooth="yes"/>
    </contour>
  </outline>
</glyph>
<glyph name="U" format="2">
  <advance width="1364"/>
  <unicode hex="0055"/>
  <anchor x="682" y="0" name="bottom"/>
  <anchor x="879" y="0" name="ogonek"/>
  <anchor x="682" y="1456" name="top"/>
  <anchor x="1117" y="1456" name="topright"/>
  <outline>
    <contour>
      <point x="155" y="400" type="qcurve" smooth="yes"/>
      <point x="155" y="1456" type="line"/>
      <point x="347" y="1456" type="line"/>
      <point x="347" y="400" type="line" smooth="yes"/>
      <point x="347" y="230"/>
      <point x="532" y="64"/>
      <point x="682" y="64" type="qcurve" smooth="yes"/>
      <point x="832" y="64"/>
      <point x="1017" y="230"/>
      <point x="1017" y="400" type="qcurve" smooth="yes"/>
      <point x="1017" y="1456" type="line"/>
      <point x="1209" y="1456" type="line"/>
      <point x="1209" y="400" type="line" smooth="yes"/>
      <point x="1209" y="150"/>
      <point x="902" y="-100"/>
      <point x="682" y="-100" type="qcurve" smooth="yes"/>
      <point x="462" y="-100"/>
      <point x="155" y="150"/>
    </contour>
  </outline>
</glyph>
<glyph name="c" format="2">
  <advance width="1068"/>
  <unicode hex="0063"/>
  <anchor x="571" y="0" name="bottom"/>
  <anchor x="571" y="1052" name="top"/>
  <outline>
    <contour>
      <point x="85" y="510" type="qcurve" smooth="yes"/>
      <point x="85" y="542" type="line" smooth="yes"/>
      <point x="85" y="780"/>
      <point x="344" y="1112"/>
      <point x="571" y="1112" type="qcurve" smooth="yes"/>
      <point x="781" y="1112"/>
      <point x="999" y="855"/>
      <point x="999" y="715" type="qcurve" smooth="yes"/>
      <point x="999" y="710" type="line"/>
      <point x="819" y="710" type="line"/>
      <point x="819" y="715" type="line" smooth="yes"/>
      <point x="819" y="800"/>
      <point x="701" y="960"/>
      <point x="571" y="960" type="qcurve" smooth="yes"/>
      <point x="419" y="960"/>
      <point x="275" y="705"/>
      <point x="275" y="542" type="qcurve" smooth="yes"/>
      <point x="275" y="510" type="line" smooth="yes"/>
      <point x="275" y="347"/>
      <point x="419" y="92"/>
      <point x="571" y="92" type="qcurve" smooth="yes"/>
      <point x="701" y="92"/>
      <point x="819" y="252"/>
      <point x="819" y="337" type="qcurve" smooth="yes"/>
      <point x="819" y="342" type="line"/>
      <point x="999" y="342" type="line"/>
      <point x="999" y="337" type="line" smooth="yes"/>
      <point x="999" y="197"/>
      <point x="781" y="-60"/>
      <point x="571" y="-60" type="qcurve" smooth="yes"/>
      <point x="344" y="-60"/>
      <point x="85" y="272"/>
    </contour>
  </outline>
</glyph>
<glyph name="e" format="2">
  <advance width="1088"/>
  <unicode hex="0065"/>
  <anchor x="590" y="0" name="bottom"/>
  <anchor x="771" y="0" name="ogonek"/>
  <anchor x="560" y="1052" name="top"/>
  <outline>
    <contour>
      <point x="85" y="510" type="qcurve" smooth="yes"/>
      <point x="85" y="542" type="line" smooth="yes"/>
      <point x="85" y="780"/>
      <point x="346" y="1112"/>
      <point x="561" y="1112" type="qcurve" smooth="yes"/>
      <point x="776" y="1112"/>
      <point x="1008" y="800"/>
      <point x="1008" y="560" type="qcurve" smooth="yes"/>
      <point x="1008" y="484" type="line"/>
      <point x="180" y="484" type="line"/>
      <point x="180" y="632" type="line"/>
      <point x="821" y="632" type="line"/>
      <point x="821" y="656" type="line" smooth="yes"/>
      <point x="821" y="770"/>
      <point x="691" y="960"/>
      <point x="569" y="960" type="qcurve" smooth="yes"/>
      <point x="421" y="960"/>
      <point x="275" y="705"/>
      <point x="275" y="542" type="qcurve" smooth="yes"/>
      <point x="275" y="510" type="line" smooth="yes"/>
      <point x="275" y="347"/>
      <point x="429" y="92"/>
      <point x="591" y="92" type="qcurve" smooth="yes"/>
      <point x="691" y="92"/>
      <point x="835" y="210"/>
      <point x="880" y="270" type="qcurve"/>
      <point x="1000" y="175" type="line"/>
      <point x="950" y="100"/>
      <point x="741" y="-60"/>
      <point x="591" y="-60" type="qcurve" smooth="yes"/>
      <point x="346" y="-60"/>
      <point x="85" y="272"/>
    </contour>
  </outline>
</glyph>
<glyph name="m" format="2">
  <advance width="1764"/>
  <unicode hex="006D"/>
  <anchor x="882" y="0" name="bottom"/>
  <anchor x="882" y="1052" name="top"/>
  <outline>
    <contour>
      <point x="148" y="0" type="line"/>
      <point x="148" y="1052" type="line"/>
      <point x="316" y="1052" type="line"/>
      <point x="334" y="757" type="line"/>
      <point x="334" y="0" type="line"/>
    </contour>
    <contour>
      <point x="980" y="681" type="qcurve" smooth="yes"/>
      <point x="980" y="0" type="line"/>
      <point x="794" y="0" type="line"/>
      <point x="794" y="681" type="line" smooth="yes"/>
      <point x="794" y="807"/>
      <point x="686" y="946"/>
      <point x="587" y="946" type="qcurve" smooth="yes"/>
      <point x="496" y="946"/>
      <point x="348" y="798"/>
      <point x="245" y="585" type="qcurve"/>
      <point x="245" y="764" type="line"/>
      <point x="321" y="942"/>
      <point x="532" y="1102"/>
      <point x="642" y="1102" type="qcurve" smooth="yes"/>
      <point x="792" y="1102"/>
      <point x="980" y="889"/>
    </contour>
    <contour>
      <point x="891" y="823" type="line"/>
      <point x="915" y="916"/>
      <point x="1132" y="1102"/>
      <point x="1270" y="1102" type="qcurve" smooth="yes"/>
      <point x="1442" y="1102"/>
      <point x="1626" y="891"/>
      <point x="1626" y="679" type="qcurve" smooth="yes"/>
      <point x="1626" y="0" type="line"/>
      <point x="1440" y="0" type="line"/>
      <point x="1440" y="681" type="line" smooth="yes"/>
      <point x="1440" y="807"/>
      <point x="1332" y="946"/>
      <point x="1222" y="946" type="qcurve" smooth="yes"/>
      <point x="1111" y="946"/>
      <point x="929" y="735"/>
      <point x="891" y="585" type="qcurve"/>
    </contour>
  </outline>
</glyph>
<glyph name="n" format="2">
  <advance width="1138"/>
  <unicode hex="006E"/>
  <anchor x="569" y="0" name="bottom"/>
  <anchor x="569" y="1052" name="top"/>
  <anchor x="907" y="0" name="engtail"/>
  <outline>
    <contour>
      <point x="148" y="0" type="line"/>
      <point x="148" y="1052" type="line"/>
      <point x="316" y="1052" type="line"/>
      <point x="334" y="744" type="line"/>
      <point x="334" y="0" type="line"/>
    </contour>
    <contour>
      <point x="241" y="567" type="qcurve"/>
      <point x="241" y="746" type="line"/>
      <point x="312" y="932"/>
      <point x="533" y="1102"/>
      <point x="652" y="1102" type="qcurve" smooth="yes"/>
      <point x="811" y="1102"/>
      <point x="1000" y="891"/>
      <point x="1000" y="679" type="qcurve" smooth="yes"/>
      <point x="1000" y="0" type="line"/>
      <point x="814" y="0" type="line"/>
      <point x="814" y="681" type="line" smooth="yes"/>
      <point x="814" y="807"/>
      <point x="701" y="946"/>
      <point x="597" y="946" type="qcurve" smooth="yes"/>
      <point x="506" y="946"/>
      <point x="345" y="800"/>
    </contour>
  </outline>
</glyph>
<glyph name="t" format="2">
  <advance width="650"/>
  <unicode hex="0074"/>
  <anchor x="388" y="0" name="bottom"/>
  <anchor x="325" y="619" name="center"/>
  <anchor x="325" y="1312" name="top"/>
  <anchor x="700" y="1052" name="topright"/>
  <outline>
    <contour>
      <point x="0" y="910" type="line"/>
      <point x="0" y="1052" type="line"/>
      <point x="600" y="1052" type="line"/>
      <point x="600" y="910" type="line"/>
    </contour>
    <contour>
      <point x="188" y="260" type="qcurve" smooth="yes"/>
      <point x="188" y="966" type="line"/>
      <point x="188" y="996" type="line"/>
      <point x="188" y="1312" type="line"/>
      <point x="374" y="1312" type="line"/>
      <point x="374" y="260" type="line" smooth="yes"/>
      <point x="374" y="190"/>
      <point x="430" y="100"/>
      <point x="490" y="100" type="qcurve" smooth="yes"/>
      <point x="518" y="100"/>
      <point x="572" y="112"/>
      <point x="600" y="122" type="qcurve"/>
      <point x="600" y="-30" type="line"/>
      <point x="574" y="-42"/>
      <point x="490" y="-60"/>
      <point x="440" y="-60" type="qcurve" smooth="yes"/>
      <point x="325" y="-60"/>
      <point x="188" y="110"/>
    </contour>
  </outline>
</glyph>
<glyph name="OE" format="2">
  <advance width="1879"/>
  <unicode hex="0152"/>
  <outline>
    <contour>
      <point x="665" y="-70" type="qcurve" smooth="yes"/>
      <point x="451" y="-70"/>
      <point x="115" y="320"/>
      <point x="115" y="682" type="qcurve" smooth="yes"/>
      <point x="115" y="772" type="line" smooth="yes"/>
      <point x="115" y="1135"/>
      <point x="455" y="1526"/>
      <point x="713" y="1526" type="qcurve" smooth="yes"/>
      <point x="786" y="1526"/>
      <point x="949" y="1484"/>
      <point x="1014" y="1456" type="qcurve"/>
      <point x="1801" y="1456" type="line"/>
      <point x="1801" y="1298" type="line"/>
      <point x="1079" y="1298" type="line"/>
      <point x="1079" y="157" type="line"/>
      <point x="1811" y="157" type="line"/>
      <point x="1811" y="0" type="line"/>
      <point x="1014" y="0" type="line"/>
      <point x="920" y="-40"/>
      <point x="743" y="-70"/>
    </contour>
    <contour>
      <point x="698" y="79" type="qcurve" smooth="yes"/>
      <point x="751" y="79"/>
      <point x="835" y="104"/>
      <point x="886" y="143" type="qcurve"/>
      <point x="886" y="1310" type="line"/>
      <point x="845" y="1337"/>
      <point x="739" y="1374"/>
      <point x="671" y="1374" type="qcurve" smooth="yes"/>
      <point x="520" y="1374"/>
      <point x="310" y="1060"/>
      <point x="310" y="774" type="qcurve" smooth="yes"/>
      <point x="310" y="682" type="line" smooth="yes"/>
      <point x="310" y="398"/>
      <point x="526" y="79"/>
    </contour>
    <contour>
      <point x="989" y="673" type="line"/>
      <point x="989" y="830" type="line"/>
      <point x="1709" y="830" type="line"/>
      <point x="1709" y="673" type="line"/>
    </contour>
  </outline>
</glyph>
<glyph name="Schwa" format="2">
  <advance width="1445"/>
  <unicode hex="018F"/>
  <outline>
    <contour>
      <point x="714" y="-100" type="qcurve" smooth="yes"/>
      <point x="445" y="-100"/>
      <point x="102" y="251"/>
      <point x="102" y="626" type="qcurve" smooth="yes"/>
      <point x="102" y="784" type="line"/>
      <point x="1228" y="784" type="line"/>
      <point x="1228" y="622" type="line"/>
      <point x="741" y="627" type="line"/>
      <point x="310" y="624" type="line"/>
      <point x="310" y="525" type="line" smooth="yes"/>
      <point x="310" y="311"/>
      <point x="535" y="59"/>
      <point x="722" y="59" type="qcurve" smooth="yes"/>
      <point x="912" y="59"/>
      <point x="1145" y="392"/>
      <point x="1143" y="749" type="qcurve" smooth="yes"/>
      <point x="1141" y="1093"/>
      <point x="890" y="1383"/>
      <point x="704" y="1383" type="qcurve" smooth="yes"/>
      <point x="528" y="1383"/>
      <point x="336" y="1166"/>
      <point x="317" y="987" type="qcurve" smooth="yes"/>
      <point x="315" y="968" type="line"/>
      <point x="116" y="968" type="line"/>
      <point x="117" y="985" type="line" smooth="yes"/>
      <point x="132" y="1242"/>
      <point x="450" y="1556"/>
      <point x="702" y="1556" type="qcurve" smooth="yes"/>
      <point x="980" y="1556"/>
      <point x="1330" y="1155"/>
      <point x="1330" y="759" type="qcurve" smooth="yes"/>
      <point x="1330" y="324"/>
      <point x="983" y="-100"/>
    </contour>
  </outline>
</glyph>
<glyph name="Theta" format="2">
  <advance width="1460"/>
  <unicode hex="0398"/>
  <outline>
    <contour>
      <point x="730" y="-100" type="qcurve" smooth="yes"/>
      <point x="443" y="-100"/>
      <point x="115" y="311"/>
      <point x="115" y="678" type="qcurve" smooth="yes"/>
      <point x="115" y="778" type="line" smooth="yes"/>
      <point x="115" y="1145"/>
      <point x="452" y="1556"/>
      <point x="730" y="1556" type="qcurve" smooth="yes"/>
      <point x="1008" y="1556"/>
      <point x="1345" y="1145"/>
      <point x="1345" y="778" type="qcurve" smooth="yes"/>
      <point x="1345" y="678" type="line" smooth="yes"/>
      <point x="1345" y="311"/>
      <point x="1017" y="-100"/>
    </contour>
    <contour>
      <point x="730" y="64" type="qcurve" smooth="yes"/>
      <point x="937" y="64"/>
      <point x="1151" y="390"/>
      <point x="1151" y="676" type="qcurve" smooth="yes"/>
      <point x="1151" y="779" type="line" smooth="yes"/>
      <point x="1151" y="1065"/>
      <point x="928" y="1392"/>
      <point x="730" y="1392" type="qcurve" smooth="yes"/>
      <point x="532" y="1392"/>
      <point x="309" y="1065"/>
      <point x="309" y="779" type="qcurve" smooth="yes"/>
      <point x="309" y="676" type="line" smooth="yes"/>
      <point x="309" y="390"/>
      <point x="523" y="64"/>
    </contour>
    <contour>
      <point x="468" y="659" type="line"/>
      <point x="468" y="827" type="line"/>
      <point x="992" y="827" type="line"/>
      <point x="992" y="659" type="line"/>
    </contour>
  </outline>
</glyph>
<glyph name="Lje" format="2">
  <advance width="2036"/>
  <unicode hex="0409"/>
  <outline>
    <contour>
      <point x="149" y="-70" type="qcurve"/>
      <point x="113" y="-70"/>
      <point x="37" y="-53"/>
      <point x="10" y="-42" type="qcurve"/>
      <point x="10" y="122" type="line"/>
      <point x="32" y="113"/>
      <point x="92" y="98"/>
      <point x="125" y="98" type="qcurve"/>
      <point x="195" y="98"/>
      <point x="275" y="296"/>
      <point x="288" y="535" type="qcurve" smooth="yes"/>
      <point x="339" y="1456" type="line"/>
      <point x="1198" y="1456" type="line"/>
      <point x="1198" y="158" type="line"/>
      <point x="1488" y="158" type="line" smooth="yes"/>
      <point x="1658" y="158"/>
      <point x="1794" y="325"/>
      <point x="1794" y="445" type="qcurve" smooth="yes"/>
      <point x="1794" y="565"/>
      <point x="1658" y="728"/>
      <point x="1488" y="728" type="qcurve" smooth="yes"/>
      <point x="1108" y="728" type="line"/>
      <point x="1108" y="886" type="line"/>
      <point x="1488" y="886" type="line" smooth="yes"/>
      <point x="1728" y="886"/>
      <point x="1986" y="645"/>
      <point x="1986" y="445" type="qcurve" smooth="yes"/>
      <point x="1986" y="245"/>
      <point x="1728" y="0"/>
      <point x="1488" y="0" type="qcurve" smooth="yes"/>
      <point x="1006" y="0" type="line"/>
      <point x="1006" y="1298" type="line"/>
      <point x="510" y="1298" type="line"/>
      <point x="466" y="502" type="line" smooth="yes"/>
      <point x="450" y="218"/>
      <point x="311" y="-70"/>
    </contour>
  </outline>
</glyph>
<glyph name="Ze" format="2">
  <advance width="1260"/>
  <unicode hex="0417"/>
  <anchor x="648" y="0" name="bottom"/>
  <outline>
    <contour>
      <point x="639" y="64" type="qcurve" smooth="yes"/>
      <point x="812" y="64"/>
      <point x="970" y="219"/>
      <point x="970" y="385" type="qcurve"/>
      <point x="970" y="540"/>
      <point x="830" y="680"/>
      <point x="680" y="680" type="qcurve" smooth="yes"/>
      <point x="448" y="680" type="line"/>
      <point x="448" y="836" type="line"/>
      <point x="650" y="836" type="line" smooth="yes"/>
      <point x="800" y="836"/>
      <point x="932" y="963"/>
      <point x="932" y="1122" type="qcurve" smooth="yes"/>
      <point x="932" y="1264"/>
      <point x="786" y="1392"/>
      <point x="627" y="1392" type="qcurve" smooth="yes"/>
      <point x="468" y="1392"/>
      <point x="295" y="1247"/>
      <point x="295" y="1092" type="qcurve" smooth="yes"/>
      <point x="295" y="1080" type="line"/>
      <point x="103" y="1080" type="line"/>
      <point x="103" y="1090" type="line" smooth="yes"/>
      <point x="103" y="1291"/>
      <point x="365" y="1556"/>
      <point x="625" y="1556" type="qcurve" smooth="yes"/>
      <point x="855" y="1556"/>
      <point x="1122" y="1347"/>
      <point x="1122" y="1122" type="qcurve" smooth="yes"/>
      <point x="1122" y="953"/>
      <point x="1000.1684590495" y="800.0598965509"/>
      <point x="910" y="768" type="qcurve"/>
      <point x="910" y="764" type="line"/>
      <point x="1020" y="732"/>
      <point x="1160" y="560"/>
      <point x="1160" y="385" type="qcurve"/>
      <point x="1160" y="154"/>
      <point x="875" y="-100"/>
      <point x="639" y="-100" type="qcurve" smooth="yes"/>
      <point x="389" y="-100"/>
      <point x="84" y="134"/>
      <point x="84" y="386" type="qcurve" smooth="yes"/>
      <point x="84" y="396" type="line"/>
      <point x="276" y="396" type="line"/>
      <point x="276" y="386" type="line" smooth="yes"/>
      <point x="276" y="217"/>
      <point x="456" y="64"/>
    </contour>
  </outline>
</glyph>
<glyph name="El" format="2">
  <advance width="1448"/>
  <unicode hex="041B"/>
  <outline>
    <contour>
      <point x="339" y="1456" type="line"/>
      <point x="1278" y="1456" type="line"/>
      <point x="1278" y="0" type="line"/>
      <point x="1086" y="0" type="line"/>
      <point x="1086" y="1298" type="line"/>
      <point x="510" y="1298" type="line"/>
      <point x="458" y="502" type="line" smooth="yes"/>
      <point x="439" y="218"/>
      <point x="303" y="-70"/>
      <point x="109" y="-70" type="qcurve" smooth="yes"/>
      <point x="85" y="-70"/>
      <point x="29" y="-63"/>
      <point x="0" y="-53" type="qcurve"/>
      <point x="0" y="111" type="line"/>
      <point x="24" y="103"/>
      <point x="64" y="98"/>
      <point x="85" y="98" type="qcurve" smooth="yes"/>
      <point x="187" y="98"/>
      <point x="265" y="296"/>
      <point x="280" y="535" type="qcurve" smooth="yes"/>
    </contour>
  </outline>
</glyph>
<glyph name="Ucyr" format="2">
  <advance width="1238"/>
  <unicode hex="0423"/>
  <anchor x="635" y="1456" name="top"/>
  <outline>
    <contour>
      <point x="131" y="116" type="line"/>
      <point x="157" y="108"/>
      <point x="221" y="98"/>
      <point x="251" y="98" type="qcurve" smooth="yes"/>
      <point x="347" y="98"/>
      <point x="465" y="187"/>
      <point x="554" y="360" type="qcurve"/>
      <point x="554" y="360" type="line"/>
      <point x="15" y="1456" type="line"/>
      <point x="233" y="1456" type="line"/>
      <point x="580" y="720" type="line" smooth="yes"/>
      <point x="605" y="668"/>
      <point x="631" y="615"/>
      <point x="647" y="579" type="qcurve"/>
      <point x="653" y="579" type="line"/>
      <point x="668" y="615"/>
      <point x="689" y="667"/>
      <point x="712" y="720" type="qcurve" smooth="yes"/>
      <point x="1027" y="1456" type="line"/>
      <point x="1223" y="1456" type="line"/>
      <point x="756" y="394" type="line" smooth="yes"/>
      <point x="627" y="101"/>
      <point x="428" y="-70"/>
      <point x="280" y="-70" type="qcurve" smooth="yes"/>
      <point x="221" y="-70"/>
      <point x="159" y="-60"/>
      <point x="131" y="-50" type="qcurve"/>
    </contour>
  </outline>
</glyph>
<glyph name="Ecyr" format="2">
  <advance width="1359"/>
  <unicode hex="042D"/>
  <guideline x="1147" y="753" angle="90" identifier="Ovo68woMtl"/>
  <anchor x="643" y="1456" name="top"/>
  <outline>
    <contour>
      <point x="1147" y="830" type="line"/>
      <point x="1147" y="672" type="line"/>
      <point x="404" y="672" type="line"/>
      <point x="404" y="830" type="line"/>
    </contour>
    <contour>
      <point x="1050" y="604" type="qcurve" smooth="yes"/>
      <point x="1050" y="837" type="line" smooth="yes"/>
      <point x="1050" y="1132"/>
      <point x="830" y="1392"/>
      <point x="644" y="1392" type="qcurve" smooth="yes"/>
      <point x="469" y="1392"/>
      <point x="276" y="1212"/>
      <point x="276" y="1073" type="qcurve" smooth="yes"/>
      <point x="276" y="1060" type="line"/>
      <point x="84" y="1060" type="line"/>
      <point x="84" y="1073" type="line" smooth="yes"/>
      <point x="84" y="1285"/>
      <point x="381" y="1556"/>
      <point x="644" y="1556" type="qcurve" smooth="yes"/>
      <point x="915" y="1556"/>
      <point x="1244" y="1187"/>
      <point x="1244" y="835" type="qcurve" smooth="yes"/>
      <point x="1244" y="657" type="line" smooth="yes"/>
      <point x="1244" y="281"/>
      <point x="903" y="-100"/>
      <point x="639" y="-100" type="qcurve" smooth="yes"/>
      <point x="379" y="-100"/>
      <point x="84" y="189"/>
      <point x="84" y="391" type="qcurve" smooth="yes"/>
      <point x="84" y="396" type="line"/>
      <point x="276" y="396" type="line"/>
      <point x="276" y="391" type="line" smooth="yes"/>
      <point x="276" y="257"/>
      <point x="456" y="64"/>
      <point x="639" y="64" type="qcurve" smooth="yes"/>
      <point x="849" y="64"/>
      <point x="1050" y="361"/>
    </contour>
  </outline>
</glyph>
<glyph name="foursuperior" format="2">
  <advance width="751"/>
  <unicode hex="2074"/>
  <outline>
    <contour>
      <point x="435" y="697" type="line"/>
      <point x="435" y="978" type="line"/>
      <point x="435" y="1002" type="line"/>
      <point x="435" y="1372" type="line"/>
      <point x="435" y="1372" type="line"/>
      <point x="212" y="1060" type="line"/>
      <point x="508" y="1060" type="line"/>
      <point x="532" y="1060" type="line"/>
      <point x="700" y="1060" type="line"/>
      <point x="700" y="930" type="line"/>
      <point x="54" y="930" type="line"/>
      <point x="54" y="1032" type="line"/>
      <point x="432" y="1546" type="line"/>
      <point x="592" y="1546" type="line"/>
      <point x="592" y="697" type="line"/>
    </contour>
  </outline>
</glyph>
<glyph name="dieresistonoscomb" format="2">
  <anchor x="0" y="1052" name="_top"/>
  <outline>
    <contour>
      <point x="-242" y="1207" type="qcurve" smooth="yes"/>
      <point x="-295" y="1207"/>
      <point x="-351" y="1268"/>
      <point x="-351" y="1311" type="qcurve" smooth="yes"/>
      <point x="-351" y="1356"/>
      <point x="-295" y="1418"/>
      <point x="-242" y="1418" type="qcurve" smooth="yes"/>
      <point x="-188" y="1418"/>
      <point x="-132" y="1356"/>
      <point x="-132" y="1311" type="qcurve" smooth="yes"/>
      <point x="-132" y="1268"/>
      <point x="-188" y="1207"/>
    </contour>
    <contour>
      <point x="51" y="1204" type="line"/>
      <point x="-65" y="1212" type="line"/>
      <point x="-41" y="1599" type="line"/>
      <point x="145" y="1599" type="line"/>
    </contour>
    <contour>
      <point x="279" y="1205" type="qcurve" smooth="yes"/>
      <point x="225" y="1205"/>
      <point x="170" y="1266"/>
      <point x="170" y="1309" type="qcurve" smooth="yes"/>
      <point x="170" y="1354"/>
      <point x="225" y="1416"/>
      <point x="279" y="1416" type="qcurve" smooth="yes"/>
      <point x="332" y="1416"/>
      <point x="389" y="1354"/>
      <point x="389" y="1309" type="qcurve" smooth="yes"/>
      <point x="389" y="1266"/>
      <point x="332" y="1205"/>
    </contour>
  </outline>
</glyph>
<glyph name="nine.prop" format="2">
  <advance width="1136"/>
  <outline>
    <contour>
      <point x="60" y="1027" type="qcurve" smooth="yes"/>
      <point x="60" y="1243"/>
      <point x="334" y="1536"/>
      <point x="544" y="1536" type="qcurve" smooth="yes"/>
      <point x="754" y="1536"/>
      <point x="1056" y="1207"/>
      <point x="1056" y="867" type="qcurve" smooth="yes"/>
      <point x="1056" y="837" type="line" smooth="yes"/>
      <point x="1056" y="484"/>
      <point x="644" y="-80"/>
      <point x="265" y="-80" type="qcurve" smooth="yes"/>
      <point x="244" y="-80" type="line"/>
      <point x="244" y="78" type="line"/>
      <point x="264" y="78" type="line" smooth="yes"/>
      <point x="544" y="78"/>
      <point x="868" y="504"/>
      <point x="868" y="827" type="qcurve" smooth="yes"/>
      <point x="868" y="877" type="line" smooth="yes"/>
      <point x="868" y="1137"/>
      <point x="684" y="1378"/>
      <point x="544" y="1378" type="qcurve" smooth="yes"/>
      <point x="404" y="1378"/>
      <point x="250" y="1182"/>
      <point x="250" y="1027" type="qcurve" smooth="yes"/>
      <point x="250" y="872"/>
      <point x="404" y="677"/>
      <point x="544" y="677" type="qcurve" smooth="yes"/>
      <point x="674" y="677"/>
      <point x="874" y="872"/>
      <point x="874" y="1027" type="qcurve"/>
      <point x="944" y="1027" type="line"/>
      <point x="944" y="811"/>
      <point x="704" y="519"/>
      <point x="504" y="519" type="qcurve" smooth="yes"/>
      <point x="305" y="519"/>
      <point x="60" y="811"/>
    </contour>
  </outline>
</glyph>
<glyph name="two.prop" format="2">
  <advance width="988"/>
  <outline>
    <contour>
      <point x="26" y="0" type="line"/>
      <point x="26" y="140" type="line"/>
      <point x="546" y="725" type="line" smooth="yes"/>
      <point x="647" y="838"/>
      <point x="756" y="1005"/>
      <point x="756" y="1105" type="qcurve" smooth="yes"/>
      <point x="756" y="1205"/>
      <point x="621" y="1378"/>
      <point x="501" y="1378" type="qcurve" smooth="yes"/>
      <point x="381" y="1378"/>
      <point x="216" y="1195"/>
      <point x="216" y="1055" type="qcurve" smooth="yes"/>
      <point x="216" y="1045" type="line"/>
      <point x="26" y="1045" type="line"/>
      <point x="26" y="1055" type="line" smooth="yes"/>
      <point x="26" y="1255"/>
      <point x="299" y="1536"/>
      <point x="501" y="1536" type="qcurve" smooth="yes"/>
      <point x="701" y="1536"/>
      <point x="946" y="1275"/>
      <point x="946" y="1115" type="qcurve" smooth="yes"/>
      <point x="946" y="973"/>
      <point x="781" y="743"/>
      <point x="671" y="620" type="qcurve" smooth="yes"/>
      <point x="256" y="156" type="line"/>
      <point x="986" y="156" type="line"/>
      <point x="986" y="0" type="line"/>
    </contour>
  </outline>
</glyph>
